<?xml version="1.0" standalone="no"?>
<!DOCTYPE svg PUBLIC "-//W3C//DTD SVG 20010904//EN"
 "http://www.w3.org/TR/2001/REC-SVG-20010904/DTD/svg10.dtd">
<svg version="1.0" xmlns="http://www.w3.org/2000/svg"
 width="103.000000pt" height="21.000000pt" viewBox="0 0 103.000000 21.000000"
 preserveAspectRatio="xMidYMid meet">
<metadata>
Created by potrace 1.10, written by Peter Selinger 2001-2011
</metadata>
<g transform="translate(0.000000,21.000000) scale(0.100000,-0.100000)"
fill="#d8d5d5" stroke="none">
<path d="M250 203 c0 -7 89 -173 102 -190 19 -25 52 5 104 97 30 51 53 95 50
97 -2 2 -14 -1 -27 -6 -16 -6 -36 -33 -59 -79 -19 -39 -37 -71 -40 -71 -3 -1
-23 31 -45 71 -24 42 -49 74 -62 79 -13 5 -23 6 -23 2z"/>
<path d="M635 200 c-83 -5 -90 -7 -102 -30 -16 -32 -16 -98 0 -130 11 -22 19
-25 77 -27 36 -1 80 -5 98 -7 26 -4 32 -1 32 14 0 16 -7 18 -78 13 -95 -7
-104 1 -100 79 l3 53 80 3 c77 3 110 14 90 30 -6 4 -50 5 -100 2z"/>
<path d="M38 178 c-8 -13 -13 -32 -11 -43 6 -26 6 -53 -2 -91 -4 -19 -3 -34 4
-38 7 -5 11 7 11 33 l0 41 50 0 c48 0 50 -1 70 -40 13 -26 27 -40 40 -40 25 0
25 7 1 44 -19 29 -19 29 1 46 15 12 21 27 20 54 -1 20 -4 41 -7 46 -4 6 -41
10 -84 10 -71 0 -80 -2 -93 -22z m147 -38 c0 -24 -3 -25 -72 -28 l-73 -3 0 31
0 31 73 -3 c69 -3 72 -4 72 -28z"/>
<path d="M821 104 c-29 -52 -51 -98 -48 -101 16 -15 46 15 82 82 22 41 42 75
45 74 3 0 20 -32 38 -70 21 -43 42 -73 55 -78 12 -5 23 -5 25 -1 2 5 -20 49
-48 99 -69 123 -79 123 -149 -5z"/>
</g>
</svg>
