<?xml version="1.0" standalone="no"?>
<!DOCTYPE svg PUBLIC "-//W3C//DTD SVG 20010904//EN"
 "http://www.w3.org/TR/2001/REC-SVG-20010904/DTD/svg10.dtd">
<svg version="1.0" xmlns="http://www.w3.org/2000/svg"
 width="78.000000pt" height="61.000000pt" viewBox="0 0 78.000000 61.000000"
 preserveAspectRatio="xMidYMid meet">
<metadata>
Created by potrace 1.10, written by Peter Selinger 2001-2011
</metadata>
<g transform="translate(0.000000,61.000000) scale(0.100000,-0.100000)"
fill="#d0cdcd" stroke="none">
<path d="M319 576 c-162 -66 -201 -156 -130 -301 61 -124 140 -144 289 -75 44
20 86 49 107 72 30 33 35 45 35 88 0 69 -35 155 -81 201 -37 37 -42 39 -101
39 -42 0 -81 -8 -119 -24z m192 -23 c39 -33 89 -136 89 -183 0 -70 -69 -131
-191 -170 -74 -24 -101 -22 -144 11 -38 30 -85 133 -85 186 0 68 61 125 179
168 62 23 115 19 152 -12z"/>
<path d="M392 487 c-49 -22 -71 -37 -69 -47 2 -8 12 -14 24 -13 20 2 20 2 -4
-60 -14 -34 -28 -65 -32 -70 -4 -4 -19 21 -33 55 -14 35 -32 63 -39 63 -18 0
-17 -6 26 -99 28 -61 38 -76 48 -67 8 6 30 53 51 105 24 62 46 100 61 110 32
21 42 20 23 -1 -24 -28 -71 -150 -65 -167 5 -13 19 -9 84 21 93 43 95 44 83
62 -7 13 -15 12 -51 -4 -23 -11 -51 -28 -61 -39 -10 -11 -21 -17 -24 -13 -4 4
0 15 9 25 19 21 67 133 67 157 0 21 -14 18 -98 -18z"/>
<path d="M6 68 c17 -55 25 -71 33 -62 16 17 40 84 30 84 -5 0 -12 -7 -14 -15
-16 -50 -17 -51 -31 -17 -16 36 -29 44 -18 10z"/>
<path d="M112 78 c-27 -27 -7 -78 29 -78 21 0 49 26 49 45 0 35 -53 58 -78 33z
m55 -24 c3 -8 -2 -23 -11 -32 -15 -15 -17 -15 -32 0 -9 9 -14 24 -11 32 8 21
46 21 54 0z"/>
<path d="M222 43 c1 -39 2 -42 5 -14 l4 34 29 -34 29 -34 -1 50 c-1 45 -1 47
-7 15 l-6 -35 -20 33 c-11 17 -23 32 -27 32 -4 0 -7 -21 -6 -47z"/>
<path d="M320 80 c0 -5 7 -10 15 -10 19 0 19 -11 0 -36 -21 -28 -18 -34 16
-34 17 0 28 4 24 10 -3 5 -12 7 -20 3 -20 -7 -19 4 5 37 11 15 17 30 13 34
-10 10 -53 7 -53 -4z"/>
<path d="M413 45 c0 -27 2 -38 4 -22 2 15 2 37 0 50 -2 12 -4 0 -4 -28z"/>
<path d="M461 43 c1 -27 3 -40 6 -30 2 9 10 17 18 17 7 0 18 7 25 15 16 19 -3
45 -31 45 -16 0 -19 -7 -18 -47z m37 16 c-2 -6 -8 -10 -13 -10 -5 0 -11 4 -13
10 -2 6 4 11 13 11 9 0 15 -5 13 -11z"/>
<path d="M551 43 c1 -27 3 -40 6 -30 2 9 10 17 18 17 7 0 18 7 25 15 16 19 -3
45 -31 45 -16 0 -19 -7 -18 -47z m39 17 c0 -5 -7 -10 -15 -10 -8 0 -15 5 -15
10 0 6 7 10 15 10 8 0 15 -4 15 -10z"/>
<path d="M640 45 c0 -38 3 -45 20 -45 11 0 20 4 20 10 0 5 -5 9 -11 7 -6 -1
-13 3 -16 10 -2 6 6 13 19 16 l23 4 -22 2 c-25 1 -32 21 -9 21 8 0 18 5 21 10
4 6 -5 10 -19 10 -24 0 -26 -3 -26 -45z"/>
<path d="M722 43 c1 -43 2 -44 5 -10 3 29 9 37 24 37 21 0 25 -10 8 -27 -8 -8
-8 -16 1 -30 11 -17 11 -17 5 1 -3 11 0 23 7 27 18 12 -2 43 -31 47 -19 3 -21
-1 -19 -45z"/>
</g>
</svg>
